<?xml version="1.0" encoding="utf-8"?>
<!-- Generator: Adobe Illustrator 16.0.0, SVG Export Plug-In . SVG Version: 6.00 Build 0)  -->
<!DOCTYPE svg PUBLIC "-//W3C//DTD SVG 1.1//EN" "http://www.w3.org/Graphics/SVG/1.1/DTD/svg11.dtd">
<svg version="1.1" id="Filled_Icons" xmlns="http://www.w3.org/2000/svg" xmlns:xlink="http://www.w3.org/1999/xlink" x="0px"
	 y="0px" width="24px" height="24px" viewBox="0 0 24 24" enable-background="new 0 0 24 24" xml:space="preserve">
<path d="M23.832,0.446c-0.073-0.11-0.167-0.204-0.277-0.277C23.397,0.063,23.19,0,23,0h-6.5c-0.552,0-1,0.448-1,1
	c0,0.553,0.448,1,1,1h4.086l-6.403,6.403C12.688,7.216,10.803,6.5,8.75,6.5C3.925,6.5,0,10.426,0,15.25C0,20.075,3.925,24,8.75,24
	s8.75-3.925,8.75-8.75c0-2.052-0.715-3.938-1.903-5.433L22,3.414V7.5c0,0.553,0.448,1,1,1s1-0.447,1-1V1
	C24,0.796,23.929,0.592,23.832,0.446z M8.75,22C5.028,22,2,18.972,2,15.25C2,11.528,5.028,8.5,8.75,8.5s6.75,3.028,6.75,6.75
	C15.5,18.972,12.472,22,8.75,22z"/>
</svg>
